<mxfile host="app.diagrams.net" agent="Mozilla/5.0 (Macintosh; Intel Mac OS X 10_15_7) AppleWebKit/537.36 (KHTML, like Gecko) Chrome/132.0.0.0 Safari/537.36" version="26.0.16">
  <diagram name="Page-1" id="uIiL4BhJr80Rl0EIQASM">
    <mxGraphModel dx="1434" dy="814" grid="1" gridSize="10" guides="1" tooltips="1" connect="1" arrows="1" fold="1" page="1" pageScale="1" pageWidth="850" pageHeight="1100" math="0" shadow="0">
      <root>
        <mxCell id="0" />
        <mxCell id="1" parent="0" />
        <mxCell id="q2MCoQfLuoKgN9joQi2b-2" value="" style="whiteSpace=wrap;html=1;aspect=fixed;strokeWidth=3;" vertex="1" parent="1">
          <mxGeometry x="300" y="150" width="420" height="420" as="geometry" />
        </mxCell>
        <mxCell id="q2MCoQfLuoKgN9joQi2b-3" value="&lt;meta charset=&quot;utf-8&quot;&gt;&lt;span style=&quot;color: rgb(0, 0, 0); font-family: Helvetica; font-size: 30px; font-style: normal; font-variant-ligatures: normal; font-variant-caps: normal; font-weight: 400; letter-spacing: normal; orphans: 2; text-align: center; text-indent: 0px; text-transform: none; widows: 2; word-spacing: 0px; -webkit-text-stroke-width: 0px; white-space: nowrap; background-color: rgb(255, 255, 255); text-decoration-thickness: initial; text-decoration-style: initial; text-decoration-color: initial; display: inline !important; float: none;&quot;&gt;Radiaton&lt;/span&gt;" style="shape=flexArrow;endArrow=classic;html=1;rounded=0;" edge="1" parent="1">
          <mxGeometry width="50" height="50" relative="1" as="geometry">
            <mxPoint x="430" y="360" as="sourcePoint" />
            <mxPoint x="170" y="359.5" as="targetPoint" />
          </mxGeometry>
        </mxCell>
        <mxCell id="q2MCoQfLuoKgN9joQi2b-4" value="&lt;meta charset=&quot;utf-8&quot;&gt;&lt;span style=&quot;color: rgb(0, 0, 0); font-family: Helvetica; font-size: 30px; font-style: normal; font-variant-ligatures: normal; font-variant-caps: normal; font-weight: 400; letter-spacing: normal; orphans: 2; text-align: center; text-indent: 0px; text-transform: none; widows: 2; word-spacing: 0px; -webkit-text-stroke-width: 0px; white-space: nowrap; background-color: rgb(255, 255, 255); text-decoration-thickness: initial; text-decoration-style: initial; text-decoration-color: initial; display: inline !important; float: none;&quot;&gt;Radiaton&lt;/span&gt;" style="shape=flexArrow;endArrow=classic;html=1;rounded=0;" edge="1" parent="1">
          <mxGeometry width="50" height="50" relative="1" as="geometry">
            <mxPoint x="509.5" y="280" as="sourcePoint" />
            <mxPoint x="509.5" y="60" as="targetPoint" />
          </mxGeometry>
        </mxCell>
        <mxCell id="q2MCoQfLuoKgN9joQi2b-5" value="&lt;meta charset=&quot;utf-8&quot;&gt;&lt;span style=&quot;color: rgb(0, 0, 0); font-family: Helvetica; font-size: 30px; font-style: normal; font-variant-ligatures: normal; font-variant-caps: normal; font-weight: 400; letter-spacing: normal; orphans: 2; text-align: center; text-indent: 0px; text-transform: none; widows: 2; word-spacing: 0px; -webkit-text-stroke-width: 0px; white-space: nowrap; background-color: rgb(255, 255, 255); text-decoration-thickness: initial; text-decoration-style: initial; text-decoration-color: initial; display: inline !important; float: none;&quot;&gt;Radiaton&lt;/span&gt;" style="shape=flexArrow;endArrow=classic;html=1;rounded=0;" edge="1" parent="1">
          <mxGeometry width="50" height="50" relative="1" as="geometry">
            <mxPoint x="509.5" y="470" as="sourcePoint" />
            <mxPoint x="509.5" y="660" as="targetPoint" />
          </mxGeometry>
        </mxCell>
        <mxCell id="q2MCoQfLuoKgN9joQi2b-6" value="" style="shape=flexArrow;endArrow=classic;html=1;rounded=0;" edge="1" parent="1">
          <mxGeometry width="50" height="50" relative="1" as="geometry">
            <mxPoint x="600" y="360" as="sourcePoint" />
            <mxPoint x="820" y="359.5" as="targetPoint" />
          </mxGeometry>
        </mxCell>
        <mxCell id="q2MCoQfLuoKgN9joQi2b-13" value="&lt;font style=&quot;font-size: 30px;&quot;&gt;Radiaton&lt;/font&gt;" style="edgeLabel;html=1;align=center;verticalAlign=middle;resizable=0;points=[];" vertex="1" connectable="0" parent="q2MCoQfLuoKgN9joQi2b-6">
          <mxGeometry x="-0.1687" y="-1" relative="1" as="geometry">
            <mxPoint as="offset" />
          </mxGeometry>
        </mxCell>
        <mxCell id="q2MCoQfLuoKgN9joQi2b-7" value="&lt;span style=&quot;font-size: 40px;&quot;&gt;Th&lt;/span&gt;" style="text;html=1;align=center;verticalAlign=middle;whiteSpace=wrap;rounded=0;" vertex="1" parent="1">
          <mxGeometry x="610" y="190" width="60" height="30" as="geometry" />
        </mxCell>
        <mxCell id="q2MCoQfLuoKgN9joQi2b-9" value="&lt;font style=&quot;font-size: 40px;&quot;&gt;Tc&lt;/font&gt;" style="text;html=1;align=center;verticalAlign=middle;whiteSpace=wrap;rounded=0;" vertex="1" parent="1">
          <mxGeometry x="130" y="220" width="60" height="30" as="geometry" />
        </mxCell>
        <mxCell id="q2MCoQfLuoKgN9joQi2b-10" value="" style="endArrow=classic;startArrow=classic;html=1;rounded=0;exitX=0.268;exitY=0.993;exitDx=0;exitDy=0;exitPerimeter=0;entryX=0.275;entryY=-0.002;entryDx=0;entryDy=0;entryPerimeter=0;strokeWidth=2;fontSize=3;" edge="1" parent="1" source="q2MCoQfLuoKgN9joQi2b-2" target="q2MCoQfLuoKgN9joQi2b-2">
          <mxGeometry width="50" height="50" relative="1" as="geometry">
            <mxPoint x="440" y="430" as="sourcePoint" />
            <mxPoint x="410" y="140" as="targetPoint" />
          </mxGeometry>
        </mxCell>
        <mxCell id="q2MCoQfLuoKgN9joQi2b-11" value="&lt;span style=&quot;font-family: Aptos; color: rgb(64, 64, 64); font-style: italic;&quot;&gt;&lt;font style=&quot;&quot;&gt;&lt;b style=&quot;&quot;&gt;&lt;font style=&quot;font-size: 40px;&quot;&gt;l&lt;/font&gt;&lt;span style=&quot;font-size: 60px;&quot;&gt;&amp;nbsp;&lt;/span&gt;&lt;/b&gt;&lt;/font&gt;&lt;/span&gt;" style="text;html=1;align=center;verticalAlign=middle;whiteSpace=wrap;rounded=0;" vertex="1" parent="1">
          <mxGeometry x="360" y="200" width="60" height="30" as="geometry" />
        </mxCell>
        <mxCell id="q2MCoQfLuoKgN9joQi2b-12" value="&lt;span style=&quot;font-family:Aptos;mso-ascii-font-family:Aptos;mso-fareast-font-family:&#xa;&amp;quot;Times New Roman&amp;quot;;mso-bidi-font-family:&amp;quot;Times New Roman&amp;quot;;color:#404040;&#xa;language:en-US;font-style:normal;mso-style-textfill-type:solid;mso-style-textfill-fill-color:&#xa;#404040;mso-style-textfill-fill-alpha:100.0%&quot;&gt;Îµ&lt;/span&gt;" style="text;whiteSpace=wrap;html=1;fontSize=40;" vertex="1" parent="1">
          <mxGeometry x="490" y="270" width="40" height="40" as="geometry" />
        </mxCell>
      </root>
    </mxGraphModel>
  </diagram>
</mxfile>
